#!OML:ASF F:\VICON\USERDATA\INSTALL\rory3\rory3.ASF
:FULLY-SPECIFIED
:DEGREES
62
root 0.49668540577345505 17.914341482484115 20.1844446637591 0.3711999538668853 1.545769401609278 -3.4748309812050593
lfemur -26.002130826670545 1.3279417464765428 -23.15338602471238
ltibia 37.99694314778582
lfoot -1.46655837785195 -8.724494853151663
ltoes -3.193940067896505
rfemur -6.778994719269539 2.978893963186933 28.804354205581404
rtibia 80.30051778679592
rfoot 6.3848914978527445 -5.990962852215329
rtoes 0.6937593252218235
lowerback 14.030378303628636 1.9035616261480337 3.2578461398335925
upperback -1.142655618673711 3.6491805801475006 1.1167899822485328
thorax -8.984358693240418 1.5013555365623963 -0.3826707440495138
lowerneck -19.590473524755822 -4.838811182530504 -2.4711338464968717
upperneck 12.36782473657262 -6.495966407823524 6.1318298124970765
head 7.306126086615561 -2.741720794693056 1.4990030648654764
lclavicle 2.9801515526439752e-15 1.1900897868484632e-16
lhumerus -51.98757788858346 -11.409477595280089 96.1806106003107
lradius 110.51815852989147
lwrist 34.255033836068584
lhand -20.811288765181903 2.8878397115068624
lfingers 7.125019999999999
lthumb 5.49980804913542 32.635932313499936
rclavicle 2.9801381671163078e-15 1.1900166246856291e-16
rhumerus -43.77006908544932 15.78147256133018 -98.24601932974943
rradius 107.10993838844217
rwrist -15.216247789619752
rhand -15.854371603268882 38.547451432786055
rfingers 7.125019999999999
rthumb 10.407811720139405 8.540334538252505
63
root 0.4840837115642063 17.756509955561143 20.867364632001077 0.04347292716420892 2.099016838051547 -2.8777921570620326
lfemur -25.258910418170835 1.4228602469580514 -23.45095908885972
ltibia 40.55643389482063
lfoot -1.3727492655300575 -8.841821065546128
ltoes -3.6011329101186
rfemur -8.582404034462105 2.229405089976366 27.921570299023927
rtibia 88.01815135235458
rfoot 6.351075455939696 -5.949786868986539
rtoes -0.8639444356703252
lowerback 14.428017499971245 1.7343377012419159 2.4700397777580787
upperback -0.9639993757059379 3.1423631516040933 0.9841099745565128
thorax -9.061096240600637 1.3309932834643377 -0.07131886855280332
lowerneck -19.55944253452195 -4.688629042155796 -2.4440953307692346
upperneck 12.345569753349787 -6.460773051984424 6.193469687666254
head 7.297728117986436 -2.7333220583100992 1.5223604189866775
lclavicle 2.9801515526439752e-15 1.1900897868484632e-16
lhumerus -50.833810659593546 -11.763321003382545 96.1799046316805
lradius 110.70879660281658
lwrist 34.41158698214555
lhand -20.75379378682492 2.9085788980841123
lfingers 7.125019999999999
lthumb 5.455555303104339 32.544390867501505
rclavicle 2.9801381671163078e-15 1.1900166246856291e-16
rhumerus -44.636497211551955 14.97803864565584 -98.60126872688578
rradius 107.11335421408836
rwrist -15.195147115780824
rhand -15.862584722284096 38.52541622915173
rfingers 7.125019999999999
rthumb 10.383871294603077 8.485658201959335
64
root 0.4747400312476409 17.59943117642951 21.853376003892112 -0.10297049571362882 2.505436073591633 -2.1643502523816354
lfemur -23.802149558505448 1.8792814282150523 -23.96230653842656
ltibia 43.41605460682542
lfoot -1.865346279539086 -9.296356208225616
ltoes -4.307565299777117
rfemur -12.371660584979477 1.374658256844429 26.46887920034293
rtibia 94.62450174058232
rfoot 6.141471089450588 -5.809325875433375
rtoes -2.4712186012562034
lowerback 14.81080986672716 1.5842024761698847 1.7392267759636109
upperback -0.8318786698331335 2.665274875701887 0.848549061109154
thorax -9.106128344189578 1.145456159393755 0.13002634181018285
lowerneck -19.742143309982104 -4.728996648019718 -2.486259750235217
upperneck 12.377360971689287 -6.372795011581658 6.279453525595153
head 7.280725304763165 -2.738219072294208 1.5234726324545491
lclavicle 2.9801515526439752e-15 1.1900897868484632e-16
lhumerus -49.99109462285587 -12.285494710445207 96.06518167594234
lradius 111.23619989460231
lwrist 34.38484564448717
lhand -20.768503867407833 2.8392190990661565
lfingers 7.125019999999999
lthumb 5.473122626398765 32.54432253700743
rclavicle 2.9801381671163078e-15 1.1900166246856291e-16
rhumerus -45.65408959746198 14.080066210740304 -98.93975783242958
rradius 107.14593083788492
rwrist -15.149592927319128
rhand -15.820611430063426 38.53737520434763
rfingers 7.125019999999999
rthumb 10.415949932433502 8.444889414176142
65
root 0.46937706243561667 17.470228538123532 23.021577819006893 -0.06431822022943301 2.680421553055237 -1.40151092122425
lfemur -21.45395842558773 2.1255968472016415 -24.39943718936269
ltibia 45.948296998797886
lfoot -0.4629427280766547 -9.116531906354096
ltoes -5.036800696055334
rfemur -13.378843807593045 1.3810257820757024 26.029660192675383
rtibia 99.6042592870111
rfoot 5.518031227059673 -5.676102482365395
rtoes -3.7025551871305447
lowerback 15.12515952985546 1.432067740572966 1.0389855661661023
upperback -0.743668883894608 2.2388257980790325 0.719390345366243
thorax -9.120259406708785 1.036486667048017 0.49702323373125573
lowerneck -19.76708299944689 -4.578812268729675 -2.4477095022308952
upperneck 12.32723000224779 -6.326684027048624 6.247893473709441
head 7.27545276983868 -2.738018727062939 1.5217737163081548
lclavicle 2.9801515526439752e-15 1.1900897868484632e-16
lhumerus -48.95783818223455 -12.706867672154775 96.04806276439096
lradius 112.29059208414283
lwrist 34.331054200937835
lhand -20.803325537645915 2.7921942714159638
lfingers 7.125019999999999
lthumb 5.42775510641712 32.46085042713658
rclavicle 2.9801381671163078e-15 1.1900166246856291e-16
rhumerus -46.860031614759535 13.14271825028414 -99.24523455995309
rradius 107.26433473246797
rwrist -15.044534754764442
rhand -15.797195243104714 38.55671594548504
rfingers 7.125019999999999
rthumb 10.41186914654157 8.42287467464894
66
root 0.468038782081805 17.37613830216909 24.14357740182578 0.08033475984154181 2.6845010939149736 -0.6983365561989605
lfemur -19.69936167202383 1.8682721667279634 -25.262222713261096
ltibia 47.52139665117943
lfoot 0.378911943695872 -9.029259885906239
ltoes -6.193818750792783
rfemur -17.64889160291403 0.9677365162922758 24.812859560088977
rtibia 102.49203810272934
rfoot 5.14269505660073 -5.330299466595388
rtoes -4.025989131356347
lowerback 15.355494512807308 1.2546207963385152 0.39166454007661167
upperback -0.6720832027333017 1.8257434378701178 0.5968530010149254
thorax -9.139367667016378 0.9230330387230887 0.7529579702637392
lowerneck -19.908333760935022 -4.557897315864071 -2.4818289542440968
upperneck 12.383545809788307 -6.170408596949402 6.262832147006428
head 7.259545866176137 -2.744541395727825 1.5038813912578997
lclavicle 2.9801515526439752e-15 1.1900897868484632e-16
lhumerus -47.5552224859766 -13.08543776142219 96.02070223174172
lradius 113.47093547553497
lwrist 34.38892827412998
lhand -20.820581664089246 2.758708004146428
lfingers 7.125019999999999
lthumb 5.400889524157508 32.48152686724812
rclavicle 2.9801381671163078e-15 1.1900166246856291e-16
rhumerus -48.144065408145565 12.276816096194473 -99.48949023981672
rradius 107.52681755398693
rwrist -15.035209895612967
rhand -15.7750379119855 38.54788905023718
rfingers 7.125019999999999
rthumb 10.46005880732782 8.433009933480472
67
root 0.46855457765123515 17.306189855914326 24.47120821992851 0.26288544592757734 2.5120836518737875 -0.22496671053764006
lfemur -18.512259675997328 1.3814136125754528 -25.799350042295142
ltibia 48.04409417648603
lfoot 1.142668938328253 -8.720486659149259
ltoes -7.723372942657014
rfemur -21.898265426503325 0.5196330972987293 23.865153578965607
rtibia 103.38389265821269
rfoot 4.877253135595121 -4.895468462960934
rtoes -3.9826491397230277
lowerback 15.470336548243004 1.0274057873397837 -0.19738898386219916
upperback -0.6331826119097883 1.5044592612995877 0.5087999863090327
thorax -9.19748960095247 0.796214471214685 0.9841500374790163
lowerneck -19.95696058354184 -4.398035706587141 -2.4701244115671366
upperneck 12.341312360005677 -6.072188883095366 6.140092717078734
head 7.286782928154205 -2.682572366729878 1.5238172564524235
lclavicle 2.9801515526439752e-15 1.1900897868484632e-16
lhumerus -45.770930367211825 -13.368377481276559 96.02582327800744
lradius 114.62544648982966
lwrist 34.44770487630486
lhand -20.79554741986777 2.737289366658301
lfingers 7.125019999999999
lthumb 5.287700851066492 32.449660591971345
rclavicle 2.9801381671163078e-15 1.1900166246856291e-16
rhumerus -49.41605754568768 11.582746748999304 -99.65004520212348
rradius 107.94999520283442
rwrist -15.12310984539956
rhand -15.762131499587278 38.57231022641275
rfingers 7.125019999999999
rthumb 10.482852233792762 8.443008569173127
68
root 0.47621644860704876 17.28049309069549 25.251726621649183 0.5312504893940093 2.383193976330146 0.10393682992606834
lfemur -17.158049423410645 1.0302889161864959 -26.225949562317513
ltibia 47.65249385036196
lfoot 1.041882434736073 -9.413543591963164
ltoes -9.408746198920253
rfemur -24.52935885158673 0.2842732438222897 23.69895419289176
rtibia 102.04521377958106
rfoot 4.819031328728952 -4.399795050638021
rtoes -3.1046955174043016
lowerback 15.498157888389823 0.7814970343523683 -0.6011043556349187
upperback -0.6343530497541393 1.2308265682093658 0.46871123492590283
thorax -9.244379312966084 0.6596983807237962 1.134083001745241
lowerneck -20.083733289182806 -4.360440372948959 -2.508787501453911
upperneck 12.379254207553258 -5.926559339861769 6.061614502837235
head 7.2936044807216796 -2.6248610286079397 1.5261855237800288
lclavicle 2.9801515526439752e-15 1.1900897868484632e-16
lhumerus -44.61941732954683 -13.781650596490705 95.87817103197924
lradius 115.52120844151227
lwrist 34.4146155175103
lhand -20.757227475201205 2.745677258672739
lfingers 7.125019999999999
lthumb 5.269816937609346 32.5090529000081
rclavicle 2.9801381671163078e-15 1.1900166246856291e-16
rhumerus -50.72979268588341 11.055772253138384 -99.7554062843475
rradius 108.3162168305474
rwrist -15.194857099818673
rhand -15.792764752463384 38.54174388119101
rfingers 7.125019999999999
rthumb 10.533445612873258 8.480013383517914
